<svg width="221" height="196" viewBox="0 0 221 196" fill="none" xmlns="http://www.w3.org/2000/svg">
<path d="M119.128 80.7722C119.128 80.7722 -48.739 123.556 31.7754 185.881C71.7488 209.557 118.695 187.476 122.587 135.719C123.992 117.332 122.828 98.8381 119.128 80.7722Z" fill="white"/>
<path d="M129.587 56.7989C129.587 56.7989 212.345 27.7176 172.831 4.09569C155.263 -7.36389 134.452 6.52813 129.776 29.5824C127.939 39.7717 129.587 56.7989 129.587 56.7989Z" fill="white"/>
<path d="M132.885 75.8261C132.885 75.8261 157.452 202.854 210.075 121.962C230.886 85.637 224.156 34.6635 170.777 57.4205C142.452 67.826 132.885 75.8261 132.885 75.8261Z" fill="white"/>
<path d="M114.236 61.6909C114.236 61.6909 -34.4145 125.583 7.42378 47.1502C27.5321 12.7174 99.9923 -27.5263 107.425 30.2311C112.344 50.8529 114.236 61.6909 114.236 61.6909Z" fill="white"/>
</svg>
