<svg width="288" height="110" viewBox="0 0 288 110" fill="none" xmlns="http://www.w3.org/2000/svg">
<g clip-path="url(#clip0_2_1150)">
<path d="M44.57 30.62C44.57 30.62 -17.54 46.45 12.25 69.51C27.04 78.27 44.41 70.1 45.85 50.95C46.3698 44.1468 45.939 37.3043 44.57 30.62Z" fill="white"/>
<path d="M48.4401 21.75C48.4401 21.75 79.0601 10.99 64.4401 2.25001C57.9401 -1.98999 50.2401 3.15 48.5101 11.68C47.8301 15.45 48.4401 21.75 48.4401 21.75Z" fill="white"/>
<path d="M49.66 28.79C49.66 28.79 58.75 75.79 78.22 45.86C85.92 32.42 83.43 13.56 63.68 21.98C53.2 25.83 49.66 28.79 49.66 28.79Z" fill="white"/>
<path d="M42.7601 23.56C42.7601 23.56 -12.2399 47.2 3.24005 18.18C10.6801 5.44 37.4901 -9.45 40.2401 11.92C42.0601 19.55 42.7601 23.56 42.7601 23.56Z" fill="white"/>
<path d="M107.85 64.19C99.9633 64.19 94.3667 61.9933 91.06 57.6C87.7533 53.2067 86.8733 46.97 88.42 38.89C89.1019 35.1058 90.435 31.4686 92.36 28.14C94.1149 25.1037 96.3855 22.3966 99.07 20.14C101.669 17.9696 104.646 16.2951 107.85 15.2C111.132 14.0713 114.58 13.5001 118.05 13.51C119.9 13.4953 121.748 13.6493 123.57 13.97C124.999 14.2252 126.408 14.576 127.79 15.02C128.797 15.345 129.774 15.7565 130.71 16.25C131.47 16.67 132.01 17 132.34 17.25L127.51 26.08C125.988 25.219 124.365 24.5473 122.68 24.08C120.528 23.484 118.302 23.2011 116.07 23.24C114.336 23.2487 112.615 23.5322 110.97 24.08C109.219 24.6626 107.597 25.5758 106.19 26.77C104.615 28.1256 103.295 29.751 102.29 31.57C101.08 33.8027 100.243 36.2177 99.81 38.72C99.3995 40.7831 99.2451 42.889 99.35 44.99C99.4259 46.7461 99.9159 48.4593 100.78 49.99C101.656 51.4352 102.935 52.5928 104.46 53.32C106.406 54.2081 108.532 54.6293 110.67 54.55C112.118 54.5559 113.565 54.4624 115 54.27C116.174 54.1057 117.339 53.8821 118.49 53.6C119.429 53.3738 120.351 53.0831 121.25 52.73L123.46 51.82L124.8 60.57C122.578 61.6943 120.227 62.5439 117.8 63.1C114.541 63.8698 111.199 64.2359 107.85 64.19Z" fill="white"/>
<path d="M185 44.71C184.49 47.5036 183.552 50.2019 182.22 52.71C180.985 55.0316 179.354 57.1197 177.4 58.88C175.502 60.5869 173.314 61.9415 170.94 62.88C168.473 63.8237 165.851 64.2985 163.21 64.28C160.76 64.331 158.328 63.8535 156.08 62.88C154.099 61.9956 152.378 60.6185 151.08 58.88C149.766 57.0482 148.897 54.9358 148.54 52.71C148.112 50.0542 148.176 47.3424 148.73 44.71C149.239 41.9285 150.209 39.2516 151.6 36.79C152.895 34.4952 154.565 32.4334 156.54 30.69C158.463 29.0166 160.663 27.6902 163.04 26.77C165.436 25.8326 167.987 25.3576 170.56 25.37C172.967 25.326 175.355 25.8036 177.56 26.77C179.531 27.633 181.251 28.9817 182.56 30.69C183.877 32.4951 184.75 34.5847 185.11 36.79C185.559 39.4144 185.522 42.099 185 44.71ZM174.34 44.71C174.96 41.48 174.8 38.95 173.86 37.1C173.399 36.1918 172.676 35.443 171.785 34.9508C170.893 34.4586 169.874 34.2458 168.86 34.34C167.709 34.3284 166.57 34.5696 165.523 35.0465C164.476 35.5234 163.547 36.2244 162.8 37.1C160.986 39.2756 159.807 41.9084 159.39 44.71C158.77 47.93 158.937 50.4866 159.89 52.38C160.343 53.2995 161.062 54.0618 161.954 54.5682C162.845 55.0745 163.868 55.3016 164.89 55.22C166.038 55.2227 167.173 54.9691 168.211 54.4778C169.249 53.9865 170.164 53.2698 170.89 52.38C172.703 50.1767 173.895 47.5285 174.34 44.71Z" fill="white"/>
<path d="M213 9.80998C214.778 9.78879 216.552 9.99037 218.28 10.41C219.498 10.6898 220.689 11.0746 221.84 11.56L218.22 19.9C217.312 19.4634 216.35 19.1474 215.36 18.96C214.373 18.7558 213.368 18.6487 212.36 18.64C211.24 18.6131 210.125 18.7928 209.07 19.17C208.208 19.4792 207.421 19.9664 206.76 20.6C206.143 21.2301 205.648 21.9693 205.3 22.78C204.919 23.6558 204.637 24.5715 204.46 25.51L204.12 27.33H217L215.36 36H202.46L197.1 64.17H186.66L194.05 25.35C194.746 20.967 196.932 16.9582 200.24 14C203.46 11.2067 207.713 9.80998 213 9.80998Z" fill="white"/>
<path d="M214.5 45.06C215.032 42.034 216.095 39.1259 217.64 36.47C218.997 34.1557 220.731 32.0839 222.77 30.34C224.652 28.7443 226.797 27.4889 229.11 26.63C231.284 25.8107 233.587 25.384 235.91 25.37C241.137 25.37 244.967 26.97 247.4 30.17C249.833 33.37 250.453 38.0767 249.26 44.29C249.15 44.9 249 45.56 248.81 46.29C248.62 47.02 248.46 47.66 248.31 48.22H224.62C224.489 49.1732 224.604 50.144 224.954 51.0401C225.304 51.9363 225.878 52.728 226.62 53.34C228.16 54.6 230.423 55.23 233.41 55.23C235.336 55.2272 237.257 55.0498 239.15 54.7C240.806 54.4294 242.431 53.9938 244 53.4L243.78 61.88C243.002 62.2195 242.2 62.5003 241.38 62.72C240.306 63.0179 239.218 63.2616 238.12 63.45C236.94 63.66 235.68 63.84 234.34 63.98C233.011 64.1206 231.676 64.1907 230.34 64.19C227.476 64.273 224.625 63.7728 221.96 62.72C219.868 61.8734 218.034 60.4944 216.64 58.72C215.322 56.9439 214.488 54.8556 214.22 52.66C213.891 50.1287 213.986 47.5602 214.5 45.06ZM239.79 41.06C239.9 40.2002 239.9 39.3298 239.79 38.47C239.713 37.6748 239.452 36.9082 239.03 36.23C238.599 35.5553 238.004 35.0013 237.3 34.62C236.398 34.1613 235.392 33.9442 234.38 33.99C233.308 33.9732 232.243 34.1739 231.25 34.58C230.363 34.9602 229.55 35.4952 228.85 36.16C228.151 36.8192 227.567 37.5896 227.12 38.44C226.66 39.2805 226.269 40.1566 225.95 41.06H239.79Z" fill="white"/>
<path d="M130 51.37C129.637 53.1085 129.496 54.886 129.58 56.66C129.64 58.1176 130.162 59.5183 131.07 60.66C132.133 61.8756 133.521 62.7635 135.07 63.22C137.41 63.9102 139.84 64.2472 142.28 64.22L145.39 55.6C144.396 55.5674 143.417 55.3539 142.5 54.97C141.891 54.7086 141.375 54.2694 141.02 53.71C140.704 53.1318 140.552 52.4783 140.58 51.82C140.591 50.9701 140.681 50.123 140.85 49.29L148.04 11.49H137.63L130 51.37Z" fill="white"/>
<path d="M253.15 51.37C252.795 53.1095 252.657 54.8865 252.74 56.66C252.801 58.1156 253.319 59.5151 254.22 60.66C255.286 61.8723 256.673 62.7595 258.22 63.22C260.56 63.9102 262.99 64.2472 265.43 64.22L268.54 55.6C267.546 55.5674 266.567 55.3539 265.65 54.97C265.041 54.7086 264.525 54.2694 264.17 53.71C263.855 53.131 263.7 52.4787 263.72 51.82C263.739 50.9701 263.833 50.1235 264 49.29L271.19 11.49H260.75L253.15 51.37Z" fill="white"/>
<path d="M279.8 14.42H278.85V6.99999H281.38C281.988 6.98688 282.577 7.21313 283.02 7.62999C283.241 7.8288 283.416 8.07291 283.533 8.34562C283.65 8.61833 283.707 8.91319 283.7 9.21C283.709 9.70989 283.531 10.1951 283.2 10.57C282.877 10.9624 282.428 11.2309 281.93 11.33L284.02 14.33H282.88L280.88 11.33H279.8V14.42ZM279.8 7.89998V10.51H281.34C281.523 10.5177 281.706 10.489 281.877 10.4255C282.049 10.3619 282.206 10.2649 282.34 10.14C282.471 10.0208 282.574 9.87552 282.645 9.71358C282.716 9.55164 282.751 9.37666 282.75 9.19999C282.749 9.0271 282.713 8.85618 282.646 8.69709C282.578 8.53799 282.479 8.39386 282.356 8.27302C282.232 8.15217 282.086 8.05699 281.925 7.99297C281.765 7.92895 281.593 7.89734 281.42 7.89998H279.8Z" fill="white"/>
<path d="M281.1 17.39C279.834 17.39 278.597 17.0146 277.544 16.3114C276.492 15.6081 275.672 14.6086 275.187 13.4392C274.703 12.2697 274.576 10.9829 274.823 9.7414C275.07 8.49992 275.68 7.35956 276.575 6.4645C277.47 5.56944 278.61 4.95989 279.851 4.71294C281.093 4.466 282.38 4.59274 283.549 5.07714C284.719 5.56154 285.718 6.38186 286.422 7.43433C287.125 8.48681 287.5 9.72418 287.5 10.99C287.497 12.6866 286.822 14.3129 285.623 15.5125C284.423 16.7122 282.797 17.3873 281.1 17.39ZM281.1 5.44997C280.004 5.44799 278.932 5.77124 278.019 6.37878C277.107 6.98631 276.396 7.85084 275.975 8.86297C275.554 9.87509 275.443 10.9893 275.655 12.0646C275.868 13.1399 276.395 14.128 277.169 14.9038C277.944 15.6796 278.931 16.2082 280.006 16.4228C281.081 16.6374 282.195 16.5282 283.208 16.1092C284.221 15.6902 285.087 14.9801 285.696 14.0689C286.305 13.1576 286.63 12.0861 286.63 10.99C286.63 9.52241 286.048 8.1148 285.011 7.07613C283.974 6.03747 282.568 5.45262 281.1 5.44997Z" fill="white"/>
<path d="M214.816 81.976L219.776 81.208L218.56 86.168H223.872L222.912 90.072H217.632L216.224 95.96C216.096 96.4507 216.011 96.9093 215.968 97.336C215.947 97.7627 216 98.136 216.128 98.456C216.277 98.7547 216.523 98.9893 216.864 99.16C217.205 99.3307 217.675 99.416 218.272 99.416C218.784 99.416 219.275 99.3733 219.744 99.288C220.235 99.1813 220.725 99.0427 221.216 98.872L221.568 102.52C220.928 102.755 220.235 102.957 219.488 103.128C218.741 103.299 217.856 103.384 216.832 103.384C215.36 103.384 214.219 103.171 213.408 102.744C212.597 102.296 212.021 101.699 211.68 100.952C211.339 100.184 211.189 99.3093 211.232 98.328C211.275 97.3467 211.424 96.312 211.68 95.224L214.816 81.976ZM224.044 96.408C224.044 95.0427 224.278 93.72 224.748 92.44C225.238 91.16 225.921 90.0293 226.796 89.048C227.67 88.0453 228.726 87.2453 229.964 86.648C231.222 86.0293 232.609 85.72 234.124 85.72C234.87 85.72 235.564 85.8267 236.204 86.04C236.844 86.2533 237.398 86.5627 237.868 86.968C238.358 87.3733 238.732 87.8747 238.988 88.472C239.265 89.048 239.404 89.7093 239.404 90.456C239.404 91.6507 239.137 92.664 238.604 93.496C238.07 94.328 237.324 95.0107 236.364 95.544C235.425 96.056 234.305 96.4293 233.004 96.664C231.702 96.8987 230.284 97.016 228.748 97.016C228.897 97.912 229.217 98.552 229.708 98.936C230.22 99.2987 231.02 99.48 232.108 99.48C232.79 99.48 233.484 99.4267 234.188 99.32C234.892 99.192 235.553 99.0107 236.172 98.776L236.524 102.52C235.926 102.755 235.158 102.968 234.22 103.16C233.302 103.352 232.3 103.448 231.212 103.448C229.889 103.448 228.769 103.267 227.852 102.904C226.956 102.52 226.22 102.008 225.644 101.368C225.089 100.728 224.684 99.9813 224.428 99.128C224.172 98.2747 224.044 97.368 224.044 96.408ZM233.356 89.496C232.268 89.496 231.308 89.8907 230.476 90.68C229.665 91.448 229.132 92.472 228.876 93.752C230.198 93.7093 231.265 93.6027 232.076 93.432C232.886 93.24 233.516 93.016 233.964 92.76C234.412 92.504 234.71 92.2267 234.86 91.928C235.009 91.6293 235.084 91.3307 235.084 91.032C235.084 90.008 234.508 89.496 233.356 89.496ZM241.013 96.28C241.013 94.8293 241.247 93.464 241.717 92.184C242.186 90.904 242.858 89.784 243.733 88.824C244.607 87.864 245.663 87.1067 246.901 86.552C248.159 85.9973 249.557 85.72 251.093 85.72C252.053 85.72 252.906 85.816 253.653 86.008C254.421 86.1787 255.114 86.4133 255.733 86.712L254.101 90.424C253.674 90.2533 253.226 90.104 252.757 89.976C252.309 89.8267 251.754 89.752 251.093 89.752C249.493 89.752 248.234 90.296 247.317 91.384C246.399 92.4507 245.941 93.912 245.941 95.768C245.941 96.856 246.175 97.7413 246.645 98.424C247.114 99.0853 247.978 99.416 249.237 99.416C249.855 99.416 250.453 99.352 251.029 99.224C251.605 99.096 252.117 98.936 252.565 98.744L252.917 102.552C252.319 102.787 251.658 102.989 250.933 103.16C250.229 103.352 249.365 103.448 248.341 103.448C247.018 103.448 245.898 103.256 244.981 102.872C244.063 102.488 243.306 101.976 242.709 101.336C242.111 100.675 241.674 99.9067 241.397 99.032C241.141 98.1573 241.013 97.24 241.013 96.28ZM266.788 85.88C267.705 85.88 268.494 86.0187 269.156 86.296C269.817 86.552 270.361 86.9253 270.788 87.416C271.214 87.8853 271.534 88.4507 271.748 89.112C271.961 89.7733 272.068 90.488 272.068 91.256C272.068 92.152 271.961 93.0373 271.748 93.912L269.572 103H264.804L266.916 94.104C267.001 93.7413 267.076 93.3573 267.14 92.952C267.225 92.5467 267.268 92.1627 267.268 91.8C267.268 91.2453 267.118 90.776 266.82 90.392C266.542 89.9867 265.998 89.784 265.188 89.784C264.846 89.784 264.516 89.8053 264.196 89.848C263.897 89.8907 263.598 89.944 263.3 90.008L260.196 103H255.428L261.188 78.936L266.148 78.168L264.196 86.2C264.622 86.1147 265.049 86.04 265.476 85.976C265.924 85.912 266.361 85.88 266.788 85.88Z" fill="white"/>
</g>
<defs>
<clipPath id="clip0_2_1150">
<rect width="288" height="110" fill="white"/>
</clipPath>
</defs>
</svg>
